<svg xmlns="http://www.w3.org/2000/svg" width="16" height="16" viewBox="0 0 16 16">
    <path fill="#9FA6B7" fill-rule="nonzero" d="M14.277 8.702a1.008 1.008 0 0 0 1.428.002 1.016 1.016 0 0 0 0-1.432L8.714.286a1.035 1.035 0 0 0-1.428 0L.296 7.27a1.016 1.016 0 0 0 0 1.432 1.005 1.005 0 0 0 1.426 0L7.999 2.43l6.278 6.273zm-6.99-1.416L.294 14.27a1.016 1.016 0 0 0 0 1.432 1.005 1.005 0 0 0 1.427 0L8 9.43l6.278 6.273a1.005 1.005 0 0 0 1.427 0 1.016 1.016 0 0 0 0-1.432L8.714 7.286a1.035 1.035 0 0 0-1.428 0z"/>
</svg>
