<svg xmlns="http://www.w3.org/2000/svg" width="50" height="50" viewBox="0 0 50 50">
    <g fill="none" fill-rule="nonzero">
        <circle cx="25" cy="25" r="25" fill="#F0F0F0"/>
        <path fill="#D80027" d="M49.788 21.74a25.247 25.247 0 0 1 0 6.52H28.261V49.789a25.23 25.23 0 0 1-6.522 0V28.261H.212a25.245 25.245 0 0 1 0-6.522h21.527V.212a25.245 25.245 0 0 1 6.522 0v21.527h21.527zm-18.266 9.782h3.074l9.551 9.55a25.062 25.062 0 0 1-1.47 1.606L31.523 31.522zm-13.044 0v3.074l-9.55 9.551a25.062 25.062 0 0 1-1.606-1.47l11.156-11.155zm0-13.044h-3.074l-9.551-9.55c.467-.557.956-1.093 1.47-1.606l11.155 11.156zm13.044 0v-3.074l9.55-9.551c.557.467 1.093.956 1.606 1.47L31.522 18.477z"/>
        <path fill="#0052B4" d="M5.168 9.78l8.699 8.698H.86A24.909 24.909 0 0 1 5.168 9.78zm43.97 8.698H36.134l8.699-8.698a24.91 24.91 0 0 1 4.307 8.698zM.862 31.522h13.006L5.168 40.22a24.911 24.911 0 0 1-4.307-8.7zm39.36-26.354l-8.7 8.699V.86a24.91 24.91 0 0 1 8.7 4.307zM9.779 44.832l8.7-8.699V49.14a24.911 24.911 0 0 1-8.7-4.307zm8.7-43.97v13.005l-8.7-8.699a24.911 24.911 0 0 1 8.7-4.307zm13.043 48.277V36.133l8.699 8.699a24.911 24.911 0 0 1-8.7 4.307zm4.611-17.617H49.14a24.91 24.91 0 0 1-4.307 8.699l-8.699-8.7z"/>
    </g>
</svg>
