<svg xmlns="http://www.w3.org/2000/svg" width="20" height="20" viewBox="0 0 20 20">
    <path fill="#9FA6B7" fill-rule="nonzero" d="M18.776 0C19.45 0 20 .55 20 1.224v6.83c0 .674-.55 1.223-1.224 1.223-.675 0-1.224-.549-1.224-1.224V4.18L11.09 10.64a1.216 1.216 0 0 1-.866.359c-.327 0-.634-.127-.865-.359A1.215 1.215 0 0 1 9 9.776c0-.327.127-.635.359-.866l6.461-6.462h-3.873c-.675 0-1.224-.549-1.224-1.224C10.723.55 11.272 0 11.947 0h6.829zm-4.853 17.923v-8.91L16 6.938v12.025c0 .573-.465 1.038-1.038 1.038H1.038A1.038 1.038 0 0 1 0 18.962V5.038C0 4.465.465 4 1.038 4h12.025l-2.077 2.077h-8.91v11.846h11.847z"/>
</svg>
