<svg xmlns="http://www.w3.org/2000/svg" width="25" height="25" viewBox="0 0 25 25">
    <path fill="#9FA6B7" fill-rule="nonzero" d="M3.323 20.833l5.714-4.711v8.387a12.55 12.55 0 0 1-5.791-3.622.572.572 0 0 0 .077-.054zm-2.898-5.1h7.282L2.594 19.95a.577.577 0 0 0-.07.068 12.458 12.458 0 0 1-2.099-4.284zm21.256 5.09c.025.02.05.038.077.053a12.55 12.55 0 0 1-5.791 3.623V16.11l5.714 4.712zm2.898-5.1a12.458 12.458 0 0 1-2.1 4.284.577.577 0 0 0-.068-.069l-5.114-4.215h7.282zM15.963.489a12.529 12.529 0 0 1 5.85 3.69l-5.85 4.437V.49zm6.574 4.578a12.484 12.484 0 0 1 2.036 4.2h-7.571l5.535-4.2zm2.288 5.346a12.491 12.491 0 0 1 0 4.174H15.39a.573.573 0 0 0-.573.573v9.624a12.506 12.506 0 0 1-4.632-.001V15.16a.573.573 0 0 0-.573-.573H.175a12.602 12.602 0 0 1-.001-4.174H9.61a.573.573 0 0 0 .573-.573V.215a12.577 12.577 0 0 1 4.632.001V9.84c0 .316.257.573.573.573h9.436zM2.32 5.245l5.387 4.022H.423A12.445 12.445 0 0 1 2.32 5.245zm.708-.902A12.506 12.506 0 0 1 9.038.487V8.83l-6.01-4.487z"/>
</svg>
