<svg xmlns="http://www.w3.org/2000/svg" width="18" height="25" viewBox="0 0 18 25">
    <path fill="#3C424F" fill-rule="nonzero" d="M14.113 1.089a.524.524 0 0 1 .255.69.516.516 0 0 1-.682.257c-1.434-.66-3.093-.994-4.935-.994-1.854 0-3.514.334-4.932.993a.513.513 0 0 1-.683-.255.524.524 0 0 1 .252-.69C4.942.367 6.747 0 8.751 0c1.99 0 3.794.367 5.362 1.089zm2.212 4.275c.2.205.197.534-.006.736a.513.513 0 0 1-.728-.005c-1.888-1.943-4.255-2.97-6.842-2.97-2.577 0-4.94 1.027-6.838 2.97a.512.512 0 0 1-.728.005.527.527 0 0 1-.004-.738c2.094-2.144 4.712-3.279 7.57-3.279 2.87 0 5.49 1.135 7.576 3.28zM8.75 4.167c4.825 0 8.751 3.971 8.751 8.854 0 .287-.23.52-.515.52a.518.518 0 0 1-.515-.52c0-4.309-3.463-7.813-7.721-7.813-.649 0-1.293.082-1.914.24a.522.522 0 0 1-.253-1.01 8.698 8.698 0 0 1 2.167-.271zM5.059 5.55a.525.525 0 0 1-.184.712 7.746 7.746 0 0 0-1.6 1.26C1.859 8.97 1.063 10.925 1.03 13.029a.517.517 0 0 1-.514.513H.508A.518.518 0 0 1 0 13.013C.037 10.64.94 8.43 2.543 6.791a8.78 8.78 0 0 1 1.812-1.427.512.512 0 0 1 .704.186zm8.735 3.026a.527.527 0 0 1-.05.735.512.512 0 0 1-.727-.05 5.635 5.635 0 0 0-4.268-1.97 5.565 5.565 0 0 0-4.01 1.697c-1.066 1.09-1.651 2.566-1.651 4.161.004 1.319-.369 2.785-1.08 4.267l-.304.548a.512.512 0 0 1-.701.197.524.524 0 0 1-.197-.709l.29-.52c.62-1.291.965-2.635.962-3.756 0-1.897.692-3.635 1.95-4.92A6.579 6.579 0 0 1 8.749 6.25c1.931 0 3.77.848 5.045 2.326zm2.604 10.449a.523.523 0 0 1-.493.672.515.515 0 0 1-.493-.369l-.589-1.962c-.358-1.647-.387-3.15-.405-4.048l-.007-.284c0-.666-.108-1.308-.322-1.92a.522.522 0 0 1 .313-.664.512.512 0 0 1 .657.317 6.81 6.81 0 0 1 .382 2.254l.005.276c.018.86.045 2.299.372 3.806l.58 1.922zm-1.502 2.406a.523.523 0 0 1-.492.675.516.516 0 0 1-.492-.365l-.476-1.545c-.856-2.708-1.047-5.65-1.084-7.162 0-2.023-1.616-3.658-3.603-3.658-1.986 0-3.602 1.668-3.602 3.719.003.86-.165 3.884-2.457 7.227a.512.512 0 0 1-.716.13.525.525 0 0 1-.129-.725c2.174-3.173 2.274-6.068 2.272-6.616 0-2.642 2.078-4.778 4.632-4.778s4.633 2.103 4.633 4.688c.028 1.16.186 4.176 1.036 6.86l.478 1.55zm-3.573-8.41c.014.607.027 6.2-4.216 11.776a.51.51 0 0 1-.722.095.525.525 0 0 1-.093-.73c4.019-5.284 4.016-10.546 4.001-11.13 0-.873-.694-1.574-1.545-1.574s-1.544.701-1.544 1.563c.006.168.132 4.623-3.362 9.223a.51.51 0 0 1-.721.096.525.525 0 0 1-.095-.73c3.27-4.306 3.155-8.398 3.15-8.57 0-1.455 1.154-2.623 2.573-2.623s2.574 1.168 2.574 2.604zm-2.061-.023c.002.034.036.865-.174 2.187a.516.516 0 0 1-.59.432.523.523 0 0 1-.428-.598c.192-1.206.163-1.968.163-1.975a.52.52 0 0 1 .492-.543c.3-.018.523.21.537.497zm-1.01 3.705a.523.523 0 0 1 .348.648 19.06 19.06 0 0 1-3.364 6.467.51.51 0 0 1-.724.082.526.526 0 0 1-.08-.732c1.465-1.859 2.536-3.915 3.18-6.114a.514.514 0 0 1 .64-.35zm4.989 6.24a.522.522 0 0 1-.337.654.512.512 0 0 1-.645-.34l-.617-1.986a23.787 23.787 0 0 1-.082-.251c-.472 1.013-1.195 2.47-1.99 3.738a.51.51 0 0 1-.71.16.524.524 0 0 1-.16-.718c1.315-2.094 2.462-4.822 2.474-4.849a.504.504 0 0 1 .503-.317.516.516 0 0 1 .464.373c.001.003.232.794.479 1.542l.62 1.995z"/>
</svg>
